<svg width="1014" height="325" viewBox="0 0 1014 325" fill="none" xmlns="http://www.w3.org/2000/svg">
<rect x="1" width="1014" height="324" fill="#35A63A"/>
<path d="M141.477 323.256C194.951 323.159 213.677 252.253 167.224 225.765V225.765C162.585 223.12 158.38 219.778 154.755 215.857L81.1149 136.188C33.8062 85.0061 70.0201 2.0125 139.717 1.88576L170.575 1.82965C237.972 1.70709 275.308 79.8763 232.854 132.222L145.219 240.275C126.229 263.69 88.8423 256.733 79.546 228.054V228.054C66.2037 186.894 5.43874 196.457 5.38467 239.726L5.33545 279.111C5.30483 303.606 25.177 323.467 49.6719 323.423L141.477 323.256Z" fill="#008D1F"/>
</svg>
