<svg width="32" height="32" viewBox="0 0 32 32" fill="none" xmlns="http://www.w3.org/2000/svg">
<path d="M31 9.33333V22.6667C31 27.269 27.269 31 22.6667 31H9.33333C4.73097 31 1 27.269 1 22.6667V9.33333C1 4.73097 4.73097 1 9.33333 1H22.6667C27.269 1 31 4.73097 31 9.33333Z" fill="white" stroke="black" stroke-width="2" stroke-linecap="round" stroke-linejoin="round"/>
<path d="M16.0002 22.6666C19.682 22.6666 22.6668 19.6818 22.6668 15.9999C22.6668 12.318 19.682 9.33325 16.0002 9.33325C12.3183 9.33325 9.3335 12.318 9.3335 15.9999C9.3335 19.6818 12.3183 22.6666 16.0002 22.6666Z" fill="white" stroke="black" stroke-width="2" stroke-linecap="round" stroke-linejoin="round"/>
<path d="M25.1668 6.84982L25.1835 6.8313L25.1668 6.84982Z" fill="white"/>
<path d="M25.1668 6.84982L25.1835 6.8313" stroke="black" stroke-width="2" stroke-linecap="round" stroke-linejoin="round"/>
</svg>
