<svg width="32" height="32" viewBox="0 0 32 32" fill="none" xmlns="http://www.w3.org/2000/svg">
<path d="M31 9.33333V22.6667C31 27.269 27.269 31 22.6667 31H9.33333C4.73097 31 1 27.269 1 22.6667V9.33333C1 4.73097 4.73097 1 9.33333 1H22.6667C27.269 1 31 4.73097 31 9.33333Z" fill="white" stroke="black" stroke-width="2" stroke-linecap="round" stroke-linejoin="round"/>
<path d="M7.66666 24.3334V18.5001V12.6667" fill="white"/>
<path d="M7.66666 24.3334V18.5001V12.6667" stroke="black" stroke-width="2" stroke-linecap="round" stroke-linejoin="round"/>
<path d="M14.3333 24.3334V18.9167ZM14.3333 12.6667V18.9167ZM14.3333 18.9167C14.3333 12.6667 24.3333 12.6667 24.3333 18.9167V24.3334" fill="white"/>
<path d="M14.3333 24.3334V18.9167M14.3333 18.9167V12.6667M14.3333 18.9167C14.3333 12.6667 24.3333 12.6667 24.3333 18.9167V24.3334" stroke="black" stroke-width="2" stroke-linecap="round" stroke-linejoin="round"/>
<path d="M7.66666 7.68307L7.68333 7.66455Z" fill="white"/>
<path d="M7.66666 7.68307L7.68333 7.66455" stroke="black" stroke-width="2" stroke-linecap="round" stroke-linejoin="round"/>
</svg>
