<svg width="32" height="32" viewBox="0 0 32 32" fill="none" xmlns="http://www.w3.org/2000/svg">
<path d="M16 31C24.2842 31 31 24.2842 31 16C31 7.71572 24.2842 1 16 1C7.71572 1 1 7.71572 1 16C1 24.2842 7.71572 31 16 31Z" fill="white" stroke="black" stroke-width="2" stroke-linecap="round" stroke-linejoin="round"/>
<path d="M19.4999 26.5V23.7055C19.5374 23.2412 19.4731 22.7744 19.311 22.3363C19.149 21.8981 18.8929 21.4985 18.5601 21.1642C21.7 20.8234 25 19.6647 25 14.3484C24.9997 12.9888 24.4627 11.6815 23.5 10.6969C23.9559 9.50757 23.9236 8.19292 23.41 7.02609C23.41 7.02609 22.2299 6.6853 19.4999 8.46717C17.2079 7.86232 14.7921 7.86232 12.5 8.46717C9.76999 6.6853 8.58999 7.02609 8.58999 7.02609C8.07636 8.19292 8.04414 9.50757 8.49999 10.6969C7.53012 11.6888 6.99252 13.008 6.99999 14.3775C6.99999 19.6549 10.3 20.8137 13.4399 21.1933C13.111 21.5244 12.8572 21.9191 12.6953 22.352C12.5333 22.7848 12.4668 23.2459 12.5 23.7055V26.5" fill="white"/>
<path d="M19.4999 26.5V23.7055C19.5374 23.2412 19.4731 22.7744 19.311 22.3363C19.149 21.8981 18.8929 21.4985 18.5601 21.1642C21.7 20.8234 25 19.6647 25 14.3484C24.9997 12.9888 24.4627 11.6815 23.5 10.6969C23.9559 9.50757 23.9236 8.19292 23.41 7.02609C23.41 7.02609 22.2299 6.6853 19.4999 8.46717C17.2079 7.86232 14.7921 7.86232 12.5 8.46717C9.76999 6.6853 8.58999 7.02609 8.58999 7.02609C8.07636 8.19292 8.04414 9.50757 8.49999 10.6969C7.53012 11.6888 6.99252 13.008 6.99999 14.3775C6.99999 19.6549 10.3 20.8137 13.4399 21.1933C13.111 21.5244 12.8572 21.9191 12.6953 22.352C12.5333 22.7848 12.4668 23.2459 12.5 23.7055V26.5" stroke="black" stroke-width="2" stroke-linecap="round" stroke-linejoin="round"/>
<path d="M12.5 24.5527C9.5 25.5002 7 24.5527 5.5 21.6316L12.5 24.5527Z" fill="white"/>
<path d="M12.5 24.5527C9.5 25.5002 7 24.5527 5.5 21.6316" stroke="black" stroke-width="2" stroke-linecap="round" stroke-linejoin="round"/>
</svg>
